<?xml version="1.0" standalone="no"?>
<!DOCTYPE svg PUBLIC "-//W3C//DTD SVG 20010904//EN"
 "http://www.w3.org/TR/2001/REC-SVG-20010904/DTD/svg10.dtd">
<svg version="1.0" xmlns="http://www.w3.org/2000/svg"
 width="1024.000000pt" height="1024.000000pt" viewBox="0 0 1024.000000 1024.000000"
 preserveAspectRatio="xMidYMid meet">

<g transform="translate(0.000000,1024.000000) scale(0.100000,-0.100000)"
fill="#000000" stroke="none">
<path d="M3220 8434 c-114 -31 -206 -109 -262 -222 l-33 -67 -3 -332 -3 -333
-157 0 c-194 0 -267 -15 -392 -76 -80 -40 -109 -62 -186 -138 -76 -77 -97
-106 -136 -186 -85 -173 -78 34 -78 -2440 0 -2198 0 -2202 21 -2283 34 -133
89 -228 194 -332 103 -104 203 -162 331 -195 76 -20 123 -20 2603 -20 2824 0
2580 -6 2746 75 194 94 333 263 391 475 17 62 18 183 18 2280 1 2113 0 2218
-18 2285 -54 209 -190 382 -375 479 -114 59 -157 68 -366 75 l-190 6 -5 330
-5 330 -32 67 c-58 124 -169 207 -306 231 -212 36 -420 -112 -466 -331 -7 -32
-11 -168 -11 -342 l0 -290 -1380 0 -1380 0 0 304 c0 332 -5 370 -63 469 -88
150 -283 228 -457 181z m144 -298 c18 -7 42 -26 54 -41 22 -28 22 -29 22 -582
l0 -555 -34 -34 c-26 -26 -42 -34 -71 -34 -42 0 -73 14 -97 44 -16 19 -18 66
-18 582 0 552 0 562 21 588 11 14 35 30 52 35 18 5 33 10 35 10 1 1 17 -5 36
-13z m3616 -15 c50 -36 51 -54 48 -629 l-3 -534 -37 -34 c-58 -52 -139 -40
-173 26 -23 45 -23 1086 1 1135 29 62 106 79 164 36z m-4060 -1064 c0 -79 5
-141 15 -173 35 -119 128 -220 242 -265 46 -18 78 -23 153 -23 86 0 101 3 162
31 172 81 248 218 248 445 l0 108 1380 0 1380 0 0 -108 c0 -173 38 -280 130
-366 118 -111 281 -143 431 -86 78 29 140 79 187 150 59 87 72 140 72 287 l0
123 149 0 c117 0 162 -4 209 -18 110 -35 201 -114 255 -222 l32 -65 3 -422 3
-423 -2851 0 -2850 0 0 393 c0 467 1 475 92 594 48 64 126 118 204 143 46 15
91 19 207 19 l147 1 0 -123z m5048 -2985 l-3 -1657 -33 -68 c-43 -86 -113
-156 -199 -199 l-68 -33 -2519 -3 c-2808 -2 -2569 -9 -2685 69 -75 50 -145
144 -172 230 -18 58 -19 123 -19 1690 l0 1629 2850 0 2850 0 -2 -1658z"/>
<path d="M3765 5188 c-44 -25 -44 -31 -45 -331 0 -293 3 -316 39 -344 25 -20
589 -18 617 2 42 29 45 57 42 354 l-3 283 -28 24 -28 24 -287 0 c-197 -1 -293
-4 -307 -12z"/>
<path d="M4795 5175 l-25 -24 0 -291 c0 -330 2 -341 68 -359 41 -12 394 -13
516 -2 122 11 116 -7 116 351 l0 297 -26 27 -27 26 -299 0 -299 0 -24 -25z"/>
<path d="M5853 5176 l-28 -24 -3 -283 c-2 -201 1 -291 9 -311 24 -57 27 -58
347 -58 l293 0 24 25 25 24 0 290 c0 191 -4 298 -11 314 -20 44 -43 47 -344
47 l-284 0 -28 -24z"/>
<path d="M3745 4195 l-25 -24 0 -296 0 -296 25 -24 24 -25 299 0 299 0 24 26
24 26 3 276 c2 152 0 287 -3 300 -3 12 -14 31 -25 42 -19 19 -35 20 -320 20
l-301 0 -24 -25z"/>
<path d="M4795 4195 l-25 -24 0 -296 0 -296 25 -24 24 -25 305 0 305 0 20 26
c20 26 21 38 21 321 l0 294 -25 24 -24 25 -301 0 -301 0 -24 -25z"/>
<path d="M5852 4200 c-12 -11 -24 -31 -27 -43 -3 -12 -5 -147 -3 -299 l3 -276
24 -26 24 -26 299 0 299 0 24 25 25 24 0 294 c0 283 -1 295 -21 321 l-20 26
-303 0 c-290 0 -303 -1 -324 -20z"/>
<path d="M3745 3226 l-25 -25 0 -295 c0 -162 3 -302 6 -311 16 -41 50 -45 348
-45 l285 0 28 24 28 24 0 301 c0 299 0 301 -23 323 -22 23 -26 23 -322 26
l-300 3 -25 -25z"/>
</g>
</svg>
